<svg xmlns="http://www.w3.org/2000/svg" viewBox="0 0 156.7 86.2" enable-background="new 0 0 156.7 86.2"><path d="M63.1 29.6h.2c.3 0 .5-.2.6-.4 2.1-7.6 9.1-12.9 17-12.9 2.9 0 5.8.7 8.3 2.1.3.2.7 0 .8-.2s0-.7-.2-.8c-2.7-1.5-5.8-2.2-8.9-2.2-8.4 0-15.9 5.7-18.1 13.8-.2.1 0 .5.3.6zm-7.6 8.8c.1.2.3.4.6.4h.2l2.3-.8c.3-.1.5-.5.4-.8l-.3-.7 1.5-.5.3.7c.1.2.3.4.6.4h.2l7.1-2.6v.1c.1.1.2.3.3.3l.3.1h.2l5.8-2.1c.7 1.3 2 2.3 3.4 2.5-1.1 2.6-2.4 5.2-3.7 7.8-.9 2-1.9 4-2.8 5.9-3.9-2.3-6.9-6.1-8-10.7-.1-.3-.4-.5-.7-.4-.3.1-.5.4-.4.7 1.3 5 4.5 9.1 8.7 11.5-.5 1.2-1 2.3-1.5 3.4-.1.3 0 .7.3.8h.2c.2 0 .5-.1.6-.4.4-1.1.9-2.2 1.4-3.3 2.6 1.3 5.4 2 8.5 2 5.6 0 10.5-2.4 14-6.3 1.1 2.6 2.2 5.1 3.1 7.5.1.2.3.4.6.4h.2c.3-.1.5-.5.4-.8-.9-2.6-2.1-5.4-3.3-8.1 2.5-3.2 3.9-7.2 3.9-11.5 0-2.6-.5-5.2-1.6-7.6-.1-.3-.5-.4-.8-.3-.3.1-.4.5-.3.8 1 2.2 1.5 4.6 1.5 7.1 0 3.8-1.2 7.3-3.3 10.2l-.5-1c-1.6-3.5-3.2-7.1-4.3-10.3-.1-.2-.3-.4-.6-.4s-.5.1-.6.4l-4.7 11.7-3.4-9.6c1-.5 1.7-1.2 2.2-2.2.4-1 .5-2 .3-3l1.3-.5c.1.1.2.2.4.2h.2l12.2-4.5.1.4c.1.1.2.3.3.3l.3.1h.2l2.3-.8c.3-.1.5-.5.4-.8l-3.1-8.4c-.1-.3-.5-.5-.8-.4l-2.3.8c-.1.1-.3.2-.3.3-.1.1-.1.3 0 .5l.3.7-12.2 4.5c-.1.1-.3.2-.3.3v.2l-15.9 5.8c-.3.1-.5.5-.4.8v.1l-7.1 2.6c-.1.1-.3.2-.3.3-.1.1-.1.3 0 .5l.1.4-1.5.5-.3-.7c-.1-.3-.5-.5-.8-.4l-2.3.8c-.1.1-.3.2-.3.3-.1.1-.1.3 0 .5l1.5 4.3zm29.7 7.5l4.5-11.3c1.1 2.9 2.5 6 3.8 8.9l.7 1.6c-2 2.4-4.6 4.2-7.6 5.3l-1.5-4.4c.1 0 .1 0 .1-.1zm.3 4.9c-1.5.4-3.1.7-4.7.7-2.8 0-5.5-.7-8-1.9l2.8-6c1.3-2.8 2.7-5.6 3.9-8.3.2 0 .3 0 .5-.1l5.5 15.6zm-3.2-18.8c-.3.7-.8 1.2-1.5 1.6l-.3-.9c-.1-.2-.3-.4-.6-.4-.2 0-.5.1-.6.4l-.6 1.3c-1.1-.1-2.2-.7-2.8-1.7l6.6-2.4c.2.7.1 1.5-.2 2.1zm15-15.6l2.7 7.3-1.1.4-2.7-7.3 1.1-.4zm-1.8 2.2l1.8 5-11.7 4.3-1.8-5 11.7-4.3zm-12.6 4.9l1.6 4.4-1.7.6-7.8 2.9-5.8 2.1v-.1l-1.3-3.7-.2-.6 15.2-5.6zm-16.2 6.7l.7 2 .4 1.1-6.5 2.4-.3-.9-.7-1.8-.1-.4 6.5-2.4zm-7.3 3.7l.3.8-1.5.5-.3-.8 1.5-.5zm-3.1-.3l.3.7.1.2.9 2.5-1.1.4-1.3-3.4 1.1-.4zm-42.8 29.3l2.6 4.3h.7l2.6-4.4.3 7.2h1.4l-.5-9.3h-1.2l-2.9 4.8-2.8-4.8h-1.3l-.4 9.3h1.2zm10.1-2.2h1.3v9.3h-1.3zm5.4 2l5.1 7.3h1.3v-9.3h-1.3v7.3l-5.1-7.3h-1.3v9.3h1.3zm9.1-2h1.3v9.3h-1.3zm7 8.3c-.3 0-.6 0-.8-.1-.3-.1-.5-.2-.7-.3s-.4-.3-.6-.4c-.2-.2-.3-.3-.4-.5l-1 .9c.1.2.3.4.5.6.2.2.5.4.8.5.3.2.6.3 1 .4.4.1.8.2 1.2.2.5 0 .9-.1 1.3-.2s.7-.3 1-.6c.3-.2.5-.5.7-.9s.3-.7.3-1.1c0-.5-.1-.9-.2-1.2-.2-.3-.4-.6-.6-.8-.3-.2-.6-.4-.9-.5l-1-.3c-.4-.1-.7-.2-.9-.3-.3-.1-.5-.2-.7-.3-.2-.1-.3-.3-.4-.4-.1-.2-.1-.4-.1-.6 0-.2 0-.3.1-.5s.2-.3.3-.4.3-.2.5-.3c.2-.1.5-.1.8-.1.3 0 .6 0 .8.1l.6.3c.2.1.3.2.4.3l.3.3.9-.8c-.1-.1-.2-.2-.3-.4-.1-.1-.3-.3-.6-.4-.2-.1-.5-.3-.8-.4-.3-.1-.7-.1-1.2-.1s-1 .1-1.4.2-.7.3-1 .6c-.3.2-.5.5-.6.8-.1.3-.2.6-.2 1s.1.7.2 1c.1.3.3.6.6.8.2.2.5.4.8.6s.7.3 1.1.3c.7.2 1.3.4 1.7.6.4.3.6.6.6 1.2 0 .5-.2.9-.5 1.1-.5 0-1 .1-1.6.1zm8 1h1.3v-8.2h3.3v-1.1h-8v1.1h3.4zm12.4-5c.3-.5.4-1 .4-1.6 0-.3-.1-.7-.2-1-.1-.3-.3-.6-.6-.9-.3-.3-.6-.5-1-.6-.4-.2-.9-.2-1.5-.2h-3v9.3h1.4v-3.8h1.9l2 3.8h1.5l-2.2-4c.6-.2 1-.6 1.3-1zm-1.4-.4c-.3.3-.7.4-1.3.4h-1.8v-3.2h1.8c.6 0 1 .1 1.3.4s.5.7.5 1.2-.2.9-.5 1.2zm7.5 5.4v-4.2l3.2-5.1h-1.4l-2.4 4-2.5-4h-1.5l3.3 5.1v4.2zm14.4-9.2c-.6-.3-1.2-.4-1.9-.4s-1.3.1-1.9.4c-.6.3-1.1.6-1.5 1.1s-.8 1-1 1.6-.4 1.2-.4 1.9.1 1.3.4 1.9.6 1.1 1 1.6.9.8 1.5 1.1c.6.3 1.2.4 1.9.4s1.3-.1 1.9-.4c.6-.3 1.1-.6 1.5-1.1.4-.4.8-1 1-1.6.2-.6.4-1.2.4-1.9s-.1-1.3-.4-1.9c-.2-.6-.6-1.1-1-1.6s-1-.8-1.5-1.1zm1.2 5.9c-.2.4-.4.8-.7 1.2-.3.3-.6.6-1.1.8-.4.2-.9.3-1.4.3-.5 0-1-.1-1.4-.3-.4-.2-.8-.5-1.1-.8-.3-.3-.5-.7-.7-1.2-.2-.4-.2-.9-.2-1.4 0-.5.1-1 .2-1.4.2-.4.4-.8.7-1.2.3-.3.6-.6 1.1-.8.4-.2.9-.3 1.4-.3.5 0 1 .1 1.4.3.4.2.8.5 1.1.8.3.3.5.7.7 1.2s.2.9.2 1.4c.1.5 0 1-.2 1.4zm9.8-4.8v-1.2h-5.8v9.3h1.3v-4.1h3.5v-1.2h-3.5v-2.8zm8.1 7.1c-.3 0-.6 0-.8-.1-.3-.1-.5-.2-.7-.3s-.4-.3-.6-.4c-.2-.2-.3-.3-.4-.5l-1 .9c.1.2.3.4.5.6.2.2.5.4.8.5.3.2.6.3 1 .4s.8.2 1.2.2c.5 0 .9-.1 1.3-.2s.7-.3 1-.6c.3-.2.5-.5.7-.9s.3-.7.3-1.1c0-.5-.1-.9-.2-1.2-.2-.3-.4-.6-.6-.8-.3-.2-.6-.4-.9-.5l-1-.3c-.4-.1-.7-.2-.9-.3-.3-.1-.5-.2-.7-.3-.2-.1-.3-.3-.4-.4-.1-.2-.1-.4-.1-.6 0-.2 0-.3.1-.5s.2-.3.3-.4.3-.2.5-.3c.2-.1.5-.1.8-.1s.6 0 .8.1l.6.3c.2.1.3.2.4.3l.3.3.9-.8c-.1-.1-.2-.2-.3-.4-.1-.1-.3-.3-.6-.4-.2-.1-.5-.3-.8-.4-.3-.1-.7-.1-1.2-.1s-1 .1-1.4.2-.7.3-1 .6c-.3.2-.5.5-.6.8-.1.3-.2.6-.2 1s.1.7.2 1c.1.3.3.6.6.8.2.2.5.4.8.6s.7.3 1.1.3c.7.2 1.3.4 1.7.6.4.3.6.6.6 1.2 0 .5-.2.9-.5 1.1-.5 0-.9.1-1.6.1zm7.2-2.7h1.7c.5 0 .9-.1 1.3-.2s.7-.3 1-.5c.3-.2.5-.5.7-.9.2-.4.2-.8.2-1.2 0-.3 0-.6-.1-1-.1-.3-.3-.6-.5-.9-.2-.3-.6-.5-1-.7-.4-.2-.9-.3-1.6-.3h-3v9.4h1.3v-3.7zm0-4.5h1.7c.6 0 1 .2 1.3.5.3.3.5.7.5 1.3 0 .5-.2.9-.5 1.2-.3.3-.8.4-1.3.4h-1.7v-3.4zm7.5 5.6h3.8l1 2.6h1.5l-3.7-9.3h-1.4l-3.7 9.3h1.4l1.1-2.6zm1.9-5.2l1.5 4.1h-3l1.5-4.1zm7 6.7c.4.4.9.8 1.5 1 .6.2 1.2.4 1.9.4.5 0 .9-.1 1.3-.2s.8-.3 1.1-.5.6-.4.8-.6.4-.4.5-.6l-.9-.8c-.1.1-.2.2-.3.4-.1.2-.3.3-.5.5-.2.1-.5.3-.8.4-.3.1-.7.2-1.1.2-.5 0-.9-.1-1.3-.3-.4-.2-.7-.4-1-.8-.3-.3-.5-.7-.7-1.2-.2-.4-.2-.9-.2-1.4s.1-1 .2-1.4c.1-.4.4-.8.7-1.2.3-.3.6-.6 1-.8.4-.2.9-.3 1.4-.3.4 0 .7 0 1 .1.3.1.5.2.7.3s.4.3.6.5c.2.2.3.3.4.5l1-.8c-.1-.2-.3-.4-.5-.6s-.5-.4-.8-.6c-.3-.2-.6-.3-1-.5s-.8-.2-1.3-.2c-.7 0-1.3.1-1.9.4-.6.3-1.1.6-1.5 1.1s-.7 1-1 1.6c-.2.6-.3 1.2-.3 1.9s.1 1.3.3 1.9c0 .6.3 1.1.7 1.6zm15.4-.1h-4.9v-3h3.4v-1.2h-3.4v-2.7h4.5v-1.2h-5.8v9.3h6.2zm2.3 5h-136c-.3 0-.6.3-.6.6s.2.6.6.6h136c.3 0 .6-.3.6-.6s-.3-.6-.6-.6z"/></svg>